<svg width="587" height="232" viewBox="0 0 587 232" fill="none" xmlns="http://www.w3.org/2000/svg">
<path d="M53.195 71.937V46.235H115.675V71.937H104.173V55.465H88.695V97H77.335V55.465H64.697V71.937H53.195ZM123.821 97V46.235H135.181V67.038H170.965V46.235H182.325V97H170.965V76.268H135.181V97H123.821ZM192.255 97V46.235H247.919V55.465H203.615V66.683H243.801V75.913H203.615V87.77H247.919V97H192.255ZM280.52 97V46.235H291.88V87.77H329.013V97H280.52ZM359.609 97.355C350.568 97.355 343.563 95.2013 338.593 90.894C333.623 86.5393 331.138 80.102 331.138 71.582C331.138 63.1093 333.623 56.7193 338.593 52.412C343.563 48.0573 350.734 45.88 360.106 45.88H372.886C382.258 45.88 389.429 48.0573 394.399 52.412C399.369 56.7193 401.854 63.1093 401.854 71.582C401.854 80.102 399.369 86.5393 394.399 90.894C389.429 95.2013 382.376 97.355 373.241 97.355H359.609ZM360.887 55.11C355.633 55.11 351.538 56.0567 348.604 57.95C345.669 59.8433 343.823 62.849 343.066 66.967H389.926C389.168 62.849 387.322 59.8433 384.388 57.95C381.453 56.0567 377.359 55.11 372.105 55.11H360.887ZM361.1 88.125H372.105C377.406 88.125 381.5 87.1783 384.388 85.285C387.322 83.3917 389.168 80.3623 389.926 76.197H343.066C343.823 80.3623 345.669 83.3917 348.604 85.285C351.538 87.1783 355.704 88.125 361.1 88.125ZM407.297 97.355V88.125L448.122 88.196C450.205 88.196 451.79 87.7227 452.879 86.776C454.015 85.782 454.583 84.1963 454.583 82.019C454.583 79.8417 454.015 78.2797 452.879 77.333C451.79 76.339 450.205 75.842 448.122 75.842H422.704C417.45 75.842 413.356 74.5877 410.421 72.079C407.534 69.523 406.09 65.7837 406.09 60.861C406.09 55.9383 407.534 52.2227 410.421 49.714C413.356 47.158 417.45 45.88 422.704 45.88H462.606V55.11L423.911 55.039C421.876 55.039 420.29 55.5123 419.154 56.459C418.018 57.3583 417.45 58.8257 417.45 60.861C417.45 62.8963 418.018 64.3873 419.154 65.334C420.29 66.2333 421.876 66.683 423.911 66.683H449.329C454.583 66.683 458.654 67.9847 461.541 70.588C464.476 73.144 465.943 76.9543 465.943 82.019C465.943 87.0363 464.476 90.8467 461.541 93.45C458.654 96.0533 454.583 97.355 449.329 97.355H407.297ZM471.291 71.937V46.235H533.771V71.937H522.269V55.465H506.791V97H495.431V55.465H482.793V71.937H471.291Z" fill="white"/>
<path d="M48.85 176L76.22 115.225H97.215L124.585 176H109.795L104.015 163.165H69.42L63.64 176H48.85ZM74.35 152.115H99.085L87.27 125.85H86.165L74.35 152.115ZM131.396 176V115.225H182.311C188.601 115.225 193.475 116.812 196.931 119.985C200.445 123.158 202.201 127.975 202.201 134.435C202.201 139.932 200.926 144.238 198.376 147.355C195.826 150.472 192.2 152.427 187.496 153.22L201.521 176H186.051L173.046 153.645H144.996V176H131.396ZM180.696 126.275H144.996V142.51L180.696 142.595C183.19 142.595 185.088 141.972 186.391 140.725C187.751 139.478 188.431 137.382 188.431 134.435C188.431 131.432 187.751 129.335 186.391 128.145C185.088 126.898 183.19 126.275 180.696 126.275ZM243.692 176.425C232.472 176.425 223.887 173.847 217.937 168.69C211.987 163.477 209.012 155.77 209.012 145.57C209.012 135.427 211.987 127.748 217.937 122.535C223.887 117.322 232.472 114.743 243.692 114.8L274.292 114.97V125.85H244.627C237.26 125.85 231.792 127.408 228.222 130.525C224.652 133.642 222.867 138.657 222.867 145.57C222.867 152.483 224.652 157.527 228.222 160.7C231.792 163.817 237.26 165.375 244.627 165.375H275.142V176.425H243.692ZM283.633 176V115.225H297.233V140.13H340.073V115.225H353.673V176H340.073V151.18H297.233V176H283.633ZM365.561 176V115.225H379.161V176H365.561ZM412.465 176L385.095 115.225H399.885L422.41 165.375H423.515L446.04 115.225H460.83L433.46 176H412.465ZM466.748 176V115.225H533.388V126.275H480.348V139.705H528.458V150.755H480.348V164.95H533.388V176H466.748Z" fill="white"/>
<rect x="583" y="32" width="32" height="4" rx="2" transform="rotate(-90 583 32)" fill="#292929"/>
<rect x="555" width="32" height="4" rx="2" fill="#292929"/>
<rect x="32" y="4" width="32" height="4" rx="2" transform="rotate(-180 32 4)" fill="#292929"/>
<rect y="32" width="32" height="4" rx="2" transform="rotate(-90 0 32)" fill="#292929"/>
<rect x="4" y="199" width="32" height="4" rx="2" transform="rotate(90 4 199)" fill="#292929"/>
<rect x="32" y="231" width="32" height="4" rx="2" transform="rotate(-180 32 231)" fill="#292929"/>
<rect x="555" y="228" width="32" height="4" rx="2" fill="#292929"/>
<rect x="587" y="200" width="32" height="4" rx="2" transform="rotate(90 587 200)" fill="#292929"/>
</svg>
