{
	"asset":{
		"generator":"Khronos glTF Blender I/O v4.0.44",
		"version":"2.0"
	},
	"extensionsUsed":[
		"EXT_texture_webp"
	],
	"scene":0,
	"scenes":[
		{
			"name":"Scene",
			"nodes":[
				5,
				6,
				7,
				8,
				9
			]
		}
	],
	"nodes":[
		{
			"mesh":0,
			"name":"world"
		},
		{
			"mesh":1,
			"name":"world.001"
		},
		{
			"children":[
				0,
				1
			],
			"name":"MASH1_ReproMesh"
		},
		{
			"children":[
				2
			],
			"name":"RootNode"
		},
		{
			"children":[
				3
			],
			"name":"e01dfc67e8e84447bf1387e7391b29be.fbx",
			"rotation":[
				0.70710688829422,
				0,
				0,
				0.7071066498756409
			]
		},
		{
			"children":[
				4
			],
			"name":"Sketchfab_model",
			"rotation":[
				-0.70710688829422,
				0,
				0,
				0.7071066498756409
			]
		},
		{
			"mesh":2,
			"name":"monster",
			"rotation":[
				-0.5514433979988098,
				0.8342005014419556,
				-0.004446946084499359,
				0.00028920656768605113
			],
			"scale":[
				2.8159005641937256,
				2.815901279449463,
				2.815901041030884
			],
			"translation":[
				-38.5814208984375,
				16.606128692626953,
				1.0885393619537354
			]
		},
		{
			"mesh":3,
			"name":"border.001",
			"rotation":[
				-0.551443338394165,
				0.8342004418373108,
				-0.0044469451531767845,
				0.00028920621844008565
			],
			"scale":[
				3.6801156997680664,
				3.6801156997680664,
				3.6801161766052246
			],
			"translation":[
				-38.317176818847656,
				16.53309440612793,
				1.0618491172790527
			]
		},
		{
			"mesh":4,
			"name":"border",
			"rotation":[
				0.2603665888309479,
				-0.636353075504303,
				0.6840879917144775,
				0.24349044263362885
			],
			"scale":[
				3.6801156997680664,
				3.6801156997680664,
				3.6801161766052246
			],
			"translation":[
				-27.525583267211914,
				-6.242860317230225,
				-30.887290954589844
			]
		},
		{
			"mesh":5,
			"name":"monster.001",
			"rotation":[
				0.26036661863327026,
				-0.6363531947135925,
				0.6840879917144775,
				0.24349044263362885
			],
			"scale":[
				2.8159005641937256,
				2.815901517868042,
				2.815901041030884
			],
			"translation":[
				-27.734525680541992,
				-6.2336649894714355,
				-31.066532135009766
			]
		}
	],
	"materials":[
		{
			"doubleSided":true,
			"name":"lambert2",
			"pbrMetallicRoughness":{
				"baseColorFactor":[
					0.015599999576807022,
					0.6072999835014343,
					0.557200014591217,
					1
				],
				"metallicFactor":0,
				"roughnessFactor":0.6000000238418579
			}
		},
		{
			"doubleSided":true,
			"name":"Material.001",
			"pbrMetallicRoughness":{
				"baseColorTexture":{
					"index":0
				},
				"metallicFactor":0,
				"roughnessFactor":0.3545454740524292
			}
		},
		{
			"doubleSided":true,
			"name":"Material.005",
			"pbrMetallicRoughness":{
				"metallicFactor":0,
				"roughnessFactor":0.5
			}
		},
		{
			"doubleSided":true,
			"name":"Material.006",
			"pbrMetallicRoughness":{
				"metallicFactor":0,
				"roughnessFactor":0.5
			}
		},
		{
			"doubleSided":true,
			"name":"Material.007",
			"pbrMetallicRoughness":{
				"baseColorTexture":{
					"index":1
				},
				"metallicFactor":0,
				"roughnessFactor":0.3545454740524292
			}
		}
	],
	"meshes":[
		{
			"name":"MASH1_ReproMesh_lambert2_0",
			"primitives":[
				{
					"attributes":{
						"POSITION":0,
						"NORMAL":1,
						"TEXCOORD_0":2
					},
					"indices":3,
					"material":0
				}
			]
		},
		{
			"name":"MASH1_ReproMesh_lambert2_0.001",
			"primitives":[
				{
					"attributes":{
						"POSITION":4,
						"NORMAL":5,
						"TEXCOORD_0":6
					},
					"indices":7,
					"material":0
				}
			]
		},
		{
			"name":"Plane",
			"primitives":[
				{
					"attributes":{
						"POSITION":8,
						"NORMAL":9,
						"TEXCOORD_0":10
					},
					"indices":11,
					"material":1
				}
			]
		},
		{
			"name":"Plane.003",
			"primitives":[
				{
					"attributes":{
						"POSITION":12,
						"NORMAL":13,
						"TEXCOORD_0":14
					},
					"indices":15,
					"material":2
				}
			]
		},
		{
			"name":"Plane.004",
			"primitives":[
				{
					"attributes":{
						"POSITION":16,
						"NORMAL":17,
						"TEXCOORD_0":18
					},
					"indices":15,
					"material":3
				}
			]
		},
		{
			"name":"Plane.005",
			"primitives":[
				{
					"attributes":{
						"POSITION":19,
						"NORMAL":20,
						"TEXCOORD_0":21
					},
					"indices":11,
					"material":4
				}
			]
		}
	],
	"textures":[
		{
			"extensions":{
				"EXT_texture_webp":{
					"source":0
				}
			},
			"sampler":0,
			"source":1
		},
		{
			"extensions":{
				"EXT_texture_webp":{
					"source":2
				}
			},
			"sampler":0,
			"source":3
		}
	],
	"images":[
		{
			"mimeType":"image/webp",
			"name":"monster_one",
			"uri":"monster_one.webp"
		},
		{
			"mimeType":"image/png",
			"name":"monster_one",
			"uri":"monster_one.png"
		},
		{
			"mimeType":"image/webp",
			"name":"monster_two",
			"uri":"monster_two.webp"
		},
		{
			"mimeType":"image/png",
			"name":"monster_two",
			"uri":"monster_two.png"
		}
	],
	"accessors":[
		{
			"bufferView":0,
			"componentType":5126,
			"count":66694,
			"max":[
				26.886634826660156,
				40.159908294677734,
				36.20564651489258
			],
			"min":[
				-36.01665496826172,
				-40.49778366088867,
				-35.96653747558594
			],
			"type":"VEC3"
		},
		{
			"bufferView":1,
			"componentType":5126,
			"count":66694,
			"type":"VEC3"
		},
		{
			"bufferView":2,
			"componentType":5126,
			"count":66694,
			"type":"VEC2"
		},
		{
			"bufferView":3,
			"componentType":5125,
			"count":98298,
			"type":"SCALAR"
		},
		{
			"bufferView":4,
			"componentType":5126,
			"count":53616,
			"max":[
				38.442787170410156,
				18.26190948486328,
				40.0980110168457
			],
			"min":[
				-40.34151077270508,
				-40.473331451416016,
				-39.5543212890625
			],
			"type":"VEC3"
		},
		{
			"bufferView":5,
			"componentType":5126,
			"count":53616,
			"type":"VEC3"
		},
		{
			"bufferView":6,
			"componentType":5126,
			"count":53616,
			"type":"VEC2"
		},
		{
			"bufferView":7,
			"componentType":5123,
			"count":78930,
			"type":"SCALAR"
		},
		{
			"bufferView":8,
			"componentType":5126,
			"count":24,
			"max":[
				1,
				0,
				1
			],
			"min":[
				-1,
				-0.05718502774834633,
				-1
			],
			"type":"VEC3"
		},
		{
			"bufferView":9,
			"componentType":5126,
			"count":24,
			"type":"VEC3"
		},
		{
			"bufferView":10,
			"componentType":5126,
			"count":24,
			"type":"VEC2"
		},
		{
			"bufferView":11,
			"componentType":5123,
			"count":36,
			"type":"SCALAR"
		},
		{
			"bufferView":12,
			"componentType":5126,
			"count":48,
			"max":[
				0.866870105266571,
				0.07221245765686035,
				0.8552650809288025
			],
			"min":[
				-0.8446795344352722,
				0.028456315398216248,
				-0.8562846779823303
			],
			"type":"VEC3"
		},
		{
			"bufferView":13,
			"componentType":5126,
			"count":48,
			"type":"VEC3"
		},
		{
			"bufferView":14,
			"componentType":5126,
			"count":48,
			"type":"VEC2"
		},
		{
			"bufferView":15,
			"componentType":5123,
			"count":96,
			"type":"SCALAR"
		},
		{
			"bufferView":16,
			"componentType":5126,
			"count":48,
			"max":[
				0.866870105266571,
				0.07221245765686035,
				0.8552650809288025
			],
			"min":[
				-0.8446795344352722,
				0.028456315398216248,
				-0.8562846779823303
			],
			"type":"VEC3"
		},
		{
			"bufferView":17,
			"componentType":5126,
			"count":48,
			"type":"VEC3"
		},
		{
			"bufferView":18,
			"componentType":5126,
			"count":48,
			"type":"VEC2"
		},
		{
			"bufferView":19,
			"componentType":5126,
			"count":24,
			"max":[
				1,
				0,
				1
			],
			"min":[
				-1,
				-0.05718502774834633,
				-1
			],
			"type":"VEC3"
		},
		{
			"bufferView":20,
			"componentType":5126,
			"count":24,
			"type":"VEC3"
		},
		{
			"bufferView":21,
			"componentType":5126,
			"count":24,
			"type":"VEC2"
		}
	],
	"bufferViews":[
		{
			"buffer":0,
			"byteLength":800328,
			"byteOffset":0,
			"target":34962
		},
		{
			"buffer":0,
			"byteLength":800328,
			"byteOffset":800328,
			"target":34962
		},
		{
			"buffer":0,
			"byteLength":533552,
			"byteOffset":1600656,
			"target":34962
		},
		{
			"buffer":0,
			"byteLength":393192,
			"byteOffset":2134208,
			"target":34963
		},
		{
			"buffer":0,
			"byteLength":643392,
			"byteOffset":2527400,
			"target":34962
		},
		{
			"buffer":0,
			"byteLength":643392,
			"byteOffset":3170792,
			"target":34962
		},
		{
			"buffer":0,
			"byteLength":428928,
			"byteOffset":3814184,
			"target":34962
		},
		{
			"buffer":0,
			"byteLength":157860,
			"byteOffset":4243112,
			"target":34963
		},
		{
			"buffer":0,
			"byteLength":288,
			"byteOffset":4400972,
			"target":34962
		},
		{
			"buffer":0,
			"byteLength":288,
			"byteOffset":4401260,
			"target":34962
		},
		{
			"buffer":0,
			"byteLength":192,
			"byteOffset":4401548,
			"target":34962
		},
		{
			"buffer":0,
			"byteLength":72,
			"byteOffset":4401740,
			"target":34963
		},
		{
			"buffer":0,
			"byteLength":576,
			"byteOffset":4401812,
			"target":34962
		},
		{
			"buffer":0,
			"byteLength":576,
			"byteOffset":4402388,
			"target":34962
		},
		{
			"buffer":0,
			"byteLength":384,
			"byteOffset":4402964,
			"target":34962
		},
		{
			"buffer":0,
			"byteLength":192,
			"byteOffset":4403348,
			"target":34963
		},
		{
			"buffer":0,
			"byteLength":576,
			"byteOffset":4403540,
			"target":34962
		},
		{
			"buffer":0,
			"byteLength":576,
			"byteOffset":4404116,
			"target":34962
		},
		{
			"buffer":0,
			"byteLength":384,
			"byteOffset":4404692,
			"target":34962
		},
		{
			"buffer":0,
			"byteLength":288,
			"byteOffset":4405076,
			"target":34962
		},
		{
			"buffer":0,
			"byteLength":288,
			"byteOffset":4405364,
			"target":34962
		},
		{
			"buffer":0,
			"byteLength":192,
			"byteOffset":4405652,
			"target":34962
		}
	],
	"samplers":[
		{
			"magFilter":9729,
			"minFilter":9987
		}
	],
	"buffers":[
		{
			"byteLength":4405844,
			"uri":"scene.bin"
		}
	]
}
